<svg width="790" height="244" viewBox="0 0 790 244" fill="none" xmlns="http://www.w3.org/2000/svg">
<g clip-path="url(#clip0_55_2)">
<path d="M86.65 90.675H110.05V112.05H86.65V169.65C86.65 175.05 87.55 178.65 89.35 180.45C91.15 182.25 94.75 183.15 100.15 183.15C101.95 183.15 103.675 183.075 105.325 182.925C106.975 182.775 108.55 182.55 110.05 182.25V207C107.35 207.45 104.35 207.75 101.05 207.9C97.75 208.05 94.525 208.125 91.375 208.125C86.425 208.125 81.7 207.75 77.2 207C72.85 206.4 68.95 205.125 65.5 203.175C62.2 201.225 59.575 198.45 57.625 194.85C55.675 191.25 54.7 186.525 54.7 180.675V112.05H35.35V90.675H54.7V55.8H86.65V90.675ZM146.627 169.2C146.627 172.65 147.302 175.65 148.652 178.2C150.152 180.6 152.027 182.625 154.277 184.275C156.527 185.775 159.077 186.9 161.927 187.65C164.927 188.4 168.002 188.775 171.152 188.775C173.402 188.775 175.727 188.55 178.127 188.1C180.677 187.5 182.927 186.675 184.877 185.625C186.977 184.425 188.702 182.925 190.052 181.125C191.402 179.175 192.077 176.775 192.077 173.925C192.077 169.125 188.852 165.525 182.402 163.125C176.102 160.725 167.252 158.325 155.852 155.925C151.202 154.875 146.627 153.675 142.127 152.325C137.777 150.825 133.877 148.95 130.427 146.7C126.977 144.3 124.202 141.375 122.102 137.925C120.002 134.325 118.952 129.975 118.952 124.875C118.952 117.375 120.377 111.225 123.227 106.425C126.227 101.625 130.127 97.875 134.927 95.175C139.727 92.325 145.127 90.375 151.127 89.325C157.127 88.125 163.277 87.525 169.577 87.525C175.877 87.525 181.952 88.125 187.802 89.325C193.802 90.525 199.127 92.55 203.777 95.4C208.427 98.25 212.252 102.075 215.252 106.875C218.402 111.525 220.277 117.45 220.877 124.65H190.502C190.052 118.5 187.727 114.375 183.527 112.275C179.327 110.025 174.377 108.9 168.677 108.9C166.877 108.9 164.927 109.05 162.827 109.35C160.727 109.5 158.777 109.95 156.977 110.7C155.327 111.45 153.902 112.575 152.702 114.075C151.502 115.425 150.902 117.3 150.902 119.7C150.902 122.55 151.952 124.875 154.052 126.675C156.152 128.475 158.852 129.975 162.152 131.175C165.602 132.225 169.502 133.2 173.852 134.1C178.202 135 182.627 135.975 187.127 137.025C191.777 138.075 196.277 139.35 200.627 140.85C205.127 142.35 209.102 144.375 212.552 146.925C216.002 149.325 218.777 152.4 220.877 156.15C222.977 159.75 224.027 164.25 224.027 169.65C224.027 177.3 222.452 183.75 219.302 189C216.302 194.1 212.327 198.225 207.377 201.375C202.427 204.525 196.727 206.7 190.277 207.9C183.977 209.25 177.527 209.925 170.927 209.925C164.177 209.925 157.577 209.25 151.127 207.9C144.677 206.55 138.902 204.3 133.802 201.15C128.852 198 124.727 193.875 121.427 188.775C118.277 183.525 116.552 177 116.252 169.2H146.627ZM321.926 148.5C321.926 143.7 321.476 139.125 320.576 134.775C319.676 130.275 318.101 126.375 315.851 123.075C313.751 119.625 310.976 116.85 307.526 114.75C304.076 112.65 299.726 111.6 294.476 111.6C289.226 111.6 284.801 112.65 281.201 114.75C277.601 116.85 274.676 119.625 272.426 123.075C270.326 126.525 268.751 130.5 267.701 135C266.801 139.35 266.351 143.925 266.351 148.725C266.351 153.225 266.876 157.725 267.926 162.225C268.976 166.725 270.626 170.775 272.876 174.375C275.276 177.825 278.201 180.675 281.651 182.925C285.251 185.025 289.526 186.075 294.476 186.075C299.726 186.075 304.076 185.025 307.526 182.925C311.126 180.825 313.976 178.05 316.076 174.6C318.176 171 319.676 166.95 320.576 162.45C321.476 157.95 321.926 153.3 321.926 148.5ZM322.376 192.15H321.926C318.176 198.45 313.226 203.025 307.076 205.875C301.076 208.575 294.251 209.925 286.601 209.925C277.901 209.925 270.251 208.275 263.651 204.975C257.051 201.525 251.576 196.95 247.226 191.25C243.026 185.4 239.801 178.725 237.551 171.225C235.451 163.725 234.401 155.925 234.401 147.825C234.401 140.025 235.451 132.525 237.551 125.325C239.801 117.975 243.026 111.525 247.226 105.975C251.576 100.425 256.976 96 263.426 92.7C269.876 89.25 277.376 87.525 285.926 87.525C292.826 87.525 299.351 89.025 305.501 92.025C311.801 94.875 316.751 99.15 320.351 104.85H320.801V46.35H352.751V207H322.376V192.15ZM373.525 90.675H403.9V112.275H404.35C405.85 108.675 407.875 105.375 410.425 102.375C412.975 99.225 415.9 96.6 419.2 94.5C422.5 92.25 426.025 90.525 429.775 89.325C433.525 88.125 437.425 87.525 441.475 87.525C443.575 87.525 445.9 87.9 448.45 88.65V118.35C446.95 118.05 445.15 117.825 443.05 117.675C440.95 117.375 438.925 117.225 436.975 117.225C431.125 117.225 426.175 118.2 422.125 120.15C418.075 122.1 414.775 124.8 412.225 128.25C409.825 131.55 408.1 135.45 407.05 139.95C406 144.45 405.475 149.325 405.475 154.575V207H373.525V90.675ZM456.251 126.45C456.701 118.95 458.576 112.725 461.876 107.775C465.176 102.825 469.376 98.85 474.476 95.85C479.576 92.85 485.276 90.75 491.576 89.55C498.026 88.2 504.476 87.525 510.926 87.525C516.776 87.525 522.701 87.975 528.701 88.875C534.701 89.625 540.176 91.2 545.126 93.6C550.076 96 554.126 99.375 557.276 103.725C560.426 107.925 562.001 113.55 562.001 120.6V181.125C562.001 186.375 562.301 191.4 562.901 196.2C563.501 201 564.551 204.6 566.051 207H533.651C533.051 205.2 532.526 203.4 532.076 201.6C531.776 199.65 531.551 197.7 531.401 195.75C526.301 201 520.301 204.675 513.401 206.775C506.501 208.875 499.451 209.925 492.251 209.925C486.701 209.925 481.526 209.25 476.726 207.9C471.926 206.55 467.726 204.45 464.126 201.6C460.526 198.75 457.676 195.15 455.576 190.8C453.626 186.45 452.651 181.275 452.651 175.275C452.651 168.675 453.776 163.275 456.026 159.075C458.426 154.725 461.426 151.275 465.026 148.725C468.776 146.175 472.976 144.3 477.626 143.1C482.426 141.75 487.226 140.7 492.026 139.95C496.826 139.2 501.551 138.6 506.201 138.15C510.851 137.7 514.976 137.025 518.576 136.125C522.176 135.225 525.026 133.95 527.126 132.3C529.226 130.5 530.201 127.95 530.051 124.65C530.051 121.2 529.451 118.5 528.251 116.55C527.201 114.45 525.701 112.875 523.751 111.825C521.951 110.625 519.776 109.875 517.226 109.575C514.826 109.125 512.201 108.9 509.351 108.9C503.051 108.9 498.101 110.25 494.501 112.95C490.901 115.65 488.801 120.15 488.201 126.45H456.251ZM530.051 150.075C528.701 151.275 526.976 152.25 524.876 153C522.926 153.6 520.751 154.125 518.351 154.575C516.101 155.025 513.701 155.4 511.151 155.7C508.601 156 506.051 156.375 503.501 156.825C501.101 157.275 498.701 157.875 496.301 158.625C494.051 159.375 492.026 160.425 490.226 161.775C488.576 162.975 487.226 164.55 486.176 166.5C485.126 168.45 484.601 170.925 484.601 173.925C484.601 176.775 485.126 179.175 486.176 181.125C487.226 183.075 488.651 184.65 490.451 185.85C492.251 186.9 494.351 187.65 496.751 188.1C499.151 188.55 501.626 188.775 504.176 188.775C510.476 188.775 515.351 187.725 518.801 185.625C522.251 183.525 524.801 181.05 526.451 178.2C528.101 175.2 529.076 172.2 529.376 169.2C529.826 166.2 530.051 163.8 530.051 162V150.075ZM716.4 207H683.55L662.85 128.925H662.4L642.6 207H609.525L572.625 90.675H606.375L627.75 169.65H628.2L647.55 90.675H678.6L698.4 169.425H698.85L720.225 90.675H753.075L716.4 207Z" fill="black"/>
</g>
<defs>
<clipPath id="clip0_55_2">
<rect width="790" height="244" fill="white"/>
</clipPath>
</defs>
</svg>
